<?xml version="1.0" encoding="iso-8859-1"?>
<!-- Uploaded to: SVG Repo, www.svgrepo.com, Generator: SVG Repo Mixer Tools -->
<svg fill="#000000" height="800px" width="800px" version="1.1" id="Capa_1" xmlns="http://www.w3.org/2000/svg" xmlns:xlink="http://www.w3.org/1999/xlink" 
	 viewBox="0 0 370.012 370.012" xml:space="preserve">
<g>
	<g id="Layer_5_32_">
		<g>
			<path d="M319.012,263.504c-2.75,0-5-2.25-5-5v-40.083c0-2.75-2.25-5-5-5h-46c-2.75,0-5-2.25-5-5v-40.082c0-2.75-2.25-5-5-5h-46
				c-2.75,0-5-2.25-5-5v-40.083c0-2.75-2.25-5-5-5h-46c-2.75,0-5-2.25-5-5V68.173c0-2.75-2.25-5-5-5H5c-2.75,0-5,2.25-5,5v54.083
				c0,2.75,2.25,5,5,5h46c2.75,0,5,2.25,5,5v40.083c0,2.75,2.25,5,5,5h46c2.75,0,5,2.25,5,5v40.082c0,2.75,2.25,5,5,5h46
				c2.75,0,5,2.25,5,5v40.083c0,2.75,2.25,5,5,5h46c2.75,0,5,2.25,5,5v40.083c0,2.75,2.25,5,5,5h136.012c2.75,0,5-2.25,5-5v-54.083
				c0-2.75-2.25-5-5-5H319.012z"/>
			<path d="M365.726,175.134l-15.052-50.375c-1.021-3.42-4.02-5.719-7.464-5.719c-2.204,0-4.278,0.926-5.842,2.606
				c0,0-5.298,5.682-7.056,7.583c-2.642,2.857-5.471,0.85-5.471,0.85l-94.624-84.731c-4.736-4.23-12.007-3.821-16.237,0.917
				c-4.23,4.737-3.82,12.007,0.917,16.238l94.273,84.417c0,0,2.167,2.833-0.621,5.698c-1.917,1.969-7.487,8.046-7.487,8.046
				c-1.998,2.149-2.691,5.039-1.854,7.73c0.838,2.692,3.047,4.679,5.913,5.316l51.328,11.391c0.607,0.135,1.225,0.203,1.834,0.203
				c2.511,0,4.794-1.131,6.265-3.104C366.039,180.199,366.469,177.625,365.726,175.134z"/>
		</g>
	</g>
</g>
</svg>